<?xml version="1.0" standalone="no"?>
<!DOCTYPE svg PUBLIC "-//W3C//DTD SVG 20010904//EN"
 "http://www.w3.org/TR/2001/REC-SVG-20010904/DTD/svg10.dtd">
<svg version="1.0" xmlns="http://www.w3.org/2000/svg"
 width="700.000000pt" height="700.000000pt" viewBox="0 0 700.000000 700.000000"
 preserveAspectRatio="xMidYMid meet">
<metadata>
Created by potrace 1.14, written by Peter Selinger 2001-2017
</metadata>
<g transform="translate(0.000000,700.000000) scale(0.100000,-0.100000)"
fill="#000000" stroke="none">
<path d="M0 3500 l0 -3500 3500 0 3500 0 0 3500 0 3500 -3500 0 -3500 0 0
-3500z m6990 0 l0 -3490 -3490 0 -3490 0 0 3490 0 3490 3490 0 3490 0 0 -3490z"/>
<path d="M6440 6791 c-76 -25 -118 -61 -149 -131 -40 -88 -23 -179 47 -249 75
-74 165 -90 259 -47 169 79 175 323 9 408 -43 22 -128 32 -166 19z m139 -71
c68 -34 103 -119 82 -197 -17 -61 -34 -70 -56 -29 -17 32 -17 35 -2 51 25 24
21 79 -7 112 -23 26 -30 28 -115 31 l-91 4 0 -121 0 -121 45 0 c43 0 45 1 45
30 0 38 16 38 38 0 14 -25 23 -30 55 -30 48 0 47 -12 -3 -35 -49 -22 -130 -16
-168 12 -36 25 -72 98 -72 143 0 125 137 208 249 150z m-59 -106 c11 -12 11
-18 -2 -31 -19 -18 -38 -10 -38 16 0 33 20 40 40 15z"/>
<path d="M2460 6279 c-185 -12 -341 -51 -506 -128 -465 -220 -728 -664 -700
-1186 31 -603 427 -1040 1051 -1162 126 -24 431 -24 570 1 300 53 566 197 738
399 l47 55 -227 203 c-125 112 -239 214 -254 227 l-27 22 -79 -77 c-118 -117
-224 -172 -371 -193 -83 -12 -203 1 -284 29 -166 57 -290 202 -334 387 -21 89
-21 277 1 359 67 259 269 414 540 415 166 0 298 -57 436 -188 66 -63 94 -83
104 -76 7 5 114 99 236 209 123 110 232 207 243 216 19 16 17 19 -73 112 -51
53 -125 118 -164 145 -257 177 -571 253 -947 231z"/>
<path d="M4493 5730 c-115 -15 -257 -47 -368 -84 -103 -35 -238 -97 -249 -115
-5 -8 215 -483 233 -503 3 -4 30 8 59 26 73 47 222 94 336 106 159 18 299 -11
370 -78 27 -26 65 -94 66 -118 0 -8 -78 -13 -257 -17 -275 -6 -384 -19 -520
-62 -191 -60 -325 -188 -368 -350 -19 -75 -19 -224 0 -298 40 -154 148 -284
295 -355 126 -61 198 -76 375 -76 131 -1 160 2 225 23 41 12 92 32 114 43 51
26 132 102 167 157 l28 44 3 -119 3 -119 358 -3 357 -2 0 552 c0 435 -3 574
-15 651 -57 377 -269 592 -670 679 -104 22 -422 33 -542 18z m457 -1220 c0
-141 -101 -239 -248 -240 -109 0 -182 57 -182 143 0 75 39 123 120 148 14 4
89 8 168 8 l142 1 0 -60z"/>
<path d="M4715 3530 c-153 -28 -258 -100 -323 -223 -25 -48 -27 -61 -27 -162
0 -101 2 -114 27 -162 72 -137 200 -214 377 -229 257 -21 458 102 506 311 48
204 -58 382 -265 446 -74 23 -221 32 -295 19z"/>
<path d="M1350 1940 l0 -1200 573 0 c614 0 805 8 963 39 642 124 1029 610 990
1242 -32 504 -317 874 -797 1033 -240 80 -315 86 -1086 86 l-643 0 0 -1200z
m1340 545 c89 -28 150 -64 212 -123 111 -105 158 -231 158 -420 0 -245 -96
-417 -280 -505 -110 -52 -166 -60 -410 -61 l-215 -1 -3 569 -2 568 242 -4
c195 -4 254 -8 298 -23z"/>
<path d="M4430 1665 l0 -935 390 0 390 0 0 935 0 935 -390 0 -390 0 0 -935z"/>
</g>
</svg>
