<svg xmlns="http://www.w3.org/2000/svg" viewBox="0 0 994.48 994.48"><defs><style>.cls-1{fill:#fff;}</style></defs><g id="Capa_2" data-name="Capa 2"><g id="Capa_2-2" data-name="Capa 2"><rect width="994.48" height="994.48"/><path class="cls-1" d="M269.71,434.78q-43.33-22.63-67.91-63.28t-24.58-92.24q0-51.58,24.58-92.23t67.91-63.28q43.31-22.64,97.34-22.64,49.65,0,88.59,17.53a164.43,164.43,0,0,1,64.25,50.62L447.37,234q-31.65-39.92-74.48-39.92-36,0-57.92,23.12t-21.9,62.06q0,39,21.9,62.06t57.92,23.12q42.84,0,74.48-39.91l72.52,64.74a164.34,164.34,0,0,1-64.25,50.62q-38.94,17.52-88.59,17.52Q313,457.41,269.71,434.78Z"/><path class="cls-1" d="M775.91,209.9q37,31.4,37,96.62v143.1H710.69v-35q-19,39.92-75.45,39.91-31.63,0-53.78-10.95t-33.59-29.69q-11.43-18.74-11.43-42.11,0-39.42,30.17-59.86t91.51-20.45h44.3q-5.37-31.14-50.14-31.15a125.64,125.64,0,0,0-36.51,5.6q-18.49,5.6-31.63,15.33l-35-72.52q22.88-14.12,55.25-22.15a266.58,266.58,0,0,1,64.49-8Q738.93,178.51,775.91,209.9ZM689.27,382q9.24-6.33,13.63-19V344.49H675.64q-33.58,0-33.58,22.39a19.35,19.35,0,0,0,7.06,15.33q7.05,6.09,19.22,6.08A36.16,36.16,0,0,0,689.27,382Z"/><path class="cls-1" d="M190.85,548.39H358.78q57,0,100.51,20.68T527,628.21Q551,666.67,551,718.75T527,809.28q-24.09,38.46-67.66,59.14T358.78,889.11H190.85ZM353.91,799.55q37,0,59.14-21.18t22.15-59.62q0-38.44-22.15-59.63T353.91,638H305.72v161.6Z"/><path class="cls-1" d="M637.26,588Q619,572.14,619,547.79t18.25-40.15q18.25-15.83,48-15.82,30.16,0,48.18,15.08t18,38.94q0,25.32-18,41.62t-48.18,16.31Q655.51,603.77,637.26,588Zm-7.06,37.23h110V891.43h-110Z"/><path class="cls-1" d="M937.34,29.47A30.85,30.85,0,0,1,949,41.14a32.6,32.6,0,0,1,4.25,16.47,32.55,32.55,0,0,1-4.34,16.56A31.85,31.85,0,0,1,937.11,86a33.52,33.52,0,0,1-33,0,31.75,31.75,0,0,1-11.71-11.81,32.41,32.41,0,0,1-4.29-16.42,32.42,32.42,0,0,1,4.29-16.43,31.66,31.66,0,0,1,11.76-11.81,34.17,34.17,0,0,1,33.17-.09Zm7.24,28.14a25.46,25.46,0,0,0-3-12.46,22.26,22.26,0,0,0-8.44-8.67,24.1,24.1,0,0,0-12.32-3.14,23.83,23.83,0,0,0-12.37,3.23,23.06,23.06,0,0,0-8.53,8.81,25.23,25.23,0,0,0-3.09,12.42,25.22,25.22,0,0,0,3.09,12.41,23.09,23.09,0,0,0,20.71,12,24.46,24.46,0,0,0,9.51-1.85,22.17,22.17,0,0,0,7.66-5.26H926.5l-5.72-8.86h-2.12v8.86H905.37V40.45h16.52q7.65,0,12,3.5a11.5,11.5,0,0,1,4.34,9.42q0,7.29-5.54,10.51l6.37,9.88A24.86,24.86,0,0,0,944.58,57.61Zm-23.52-.46a3.86,3.86,0,0,0,2.86-1,3.73,3.73,0,0,0,1-2.76,3.77,3.77,0,0,0-1-2.77,3.86,3.86,0,0,0-2.86-1h-2.4v7.57Z"/></g></g></svg>